<svg width="60" height="34" viewBox="0 0 60 34" fill="none" xmlns="http://www.w3.org/2000/svg">
<g clip-path="url(#clip0_401_2494)">
<path d="M58.8204 13.445H54.6383V9.04345C54.6383 7.71354 53.5565 6.63153 52.2264 6.63153H49.3917C49.1673 6.63153 48.9508 6.66465 48.7446 6.72226V5.8344C48.7446 4.50449 47.6627 3.42249 46.3327 3.42249H41.65C40.3201 3.42249 39.2381 4.50437 39.2381 5.8344V13.445H20.4641V5.8344C20.4641 4.50449 19.3822 3.42249 18.0522 3.42249H13.3694C12.0395 3.42249 10.9575 4.50437 10.9575 5.8344V6.72226C10.7512 6.66465 10.5348 6.63153 10.3104 6.63153H7.47594C6.14603 6.63153 5.06402 7.71342 5.06402 9.04345V13.445H0.881883C0.394463 13.445 -0.000488281 13.8401 -0.000488281 14.3274V21.168C-0.000488281 21.6553 0.394463 22.0504 0.881883 22.0504H5.06402V26.452C5.06402 27.7819 6.14591 28.8639 7.47594 28.8639H10.3106C10.5349 28.8639 10.7515 28.8306 10.9576 28.7732V29.661C10.9576 30.9909 12.0395 32.0729 13.3695 32.0729H18.0523C19.3822 32.0729 20.4642 30.9909 20.4642 29.661V22.0504H39.2383V29.661C39.2383 30.9909 40.3203 32.0729 41.6502 32.0729H46.3329C47.6629 32.0729 48.7449 30.991 48.7449 29.661V28.7732C48.9511 28.8308 49.1676 28.8639 49.3919 28.8639H52.2267C53.5566 28.8639 54.6386 27.782 54.6386 26.452V22.0504H58.8206C59.308 22.0504 59.703 21.6553 59.703 21.168V14.3274C59.7027 13.8401 59.3078 13.445 58.8204 13.445ZM5.06402 20.2856H1.76437V15.2098H5.06402V20.2856ZM10.9576 26.4521C10.9576 26.8088 10.6674 27.0991 10.3106 27.0991H7.47594C7.11924 27.0991 6.82888 26.8089 6.82888 26.4521V21.168V14.3274V9.04333C6.82888 8.68651 7.11924 8.39628 7.47594 8.39628H10.3106C10.6674 8.39628 10.9576 8.68651 10.9576 9.04333V26.4521ZM18.6992 14.3275V21.1681V29.661C18.6992 30.0178 18.4089 30.3081 18.0522 30.3081H13.3694C13.0127 30.3081 12.7224 30.0178 12.7224 29.661V26.452V9.04333V5.8344C12.7224 5.47758 13.0127 5.18734 13.3694 5.18734H18.0522C18.4089 5.18734 18.6992 5.47758 18.6992 5.8344V14.3275ZM39.2381 20.2856H20.4641V15.2098H39.2381V20.2856ZM46.9799 9.04322V26.452V29.6611C46.9799 30.0179 46.6895 30.3082 46.3328 30.3082H41.6501C41.2934 30.3082 41.003 30.0179 41.003 29.6611V21.1681V14.3275V5.83452C41.003 5.4777 41.2934 5.18746 41.6501 5.18746H46.3328C46.6895 5.18746 46.9799 5.4777 46.9799 5.83452V9.04322ZM52.8736 14.3274V21.168V26.4521C52.8736 26.8089 52.5832 27.0991 52.2265 27.0991H49.3918C49.0351 27.0991 48.7447 26.8089 48.7447 26.4521V9.04333C48.7447 8.68651 49.0351 8.39628 49.3918 8.39628H52.2265C52.5832 8.39628 52.8736 8.68651 52.8736 9.04333V14.3274ZM57.9379 20.2856H54.6383V15.2098H57.9379V20.2856Z" fill="#FFBC2C"/>
</g>
<defs>
<clipPath id="clip0_401_2494">
<rect width="59.7033" height="33.3228" fill="white" transform="translate(0 0.645508)"/>
</clipPath>
</defs>
</svg>
