<svg width="50" height="50" viewBox="0 0 50 50" fill="none" xmlns="http://www.w3.org/2000/svg">
<path d="M5.99808 2.99902C5.0817 2.99902 4.26718 3.37866 3.75074 3.95966C3.2343 4.54066 2.99902 5.27608 2.99902 5.99807C2.99902 6.72007 3.2343 7.45549 3.75074 8.03649C4.26718 8.61749 5.0817 8.99713 5.99808 8.99713C6.91445 8.99713 7.72897 8.61749 8.24541 8.03649C8.76185 7.45549 8.99713 6.72007 8.99713 5.99807C8.99713 5.27608 8.76185 4.54066 8.24541 3.95966C7.72897 3.37866 6.91445 2.99902 5.99808 2.99902ZM42.9864 3.99871C41.7368 3.99871 40.6723 4.5033 39.9893 5.27174C39.3062 6.04018 38.9877 7.02553 38.9877 7.99744C38.9877 8.96936 39.3062 9.9547 39.9893 10.7231C40.6723 11.4916 41.7368 11.9962 42.9864 11.9962C44.236 11.9962 45.3004 11.4916 45.9835 10.7231C46.6665 9.9547 46.9851 8.96936 46.9851 7.99744C46.9851 7.02553 46.6665 6.04018 45.9835 5.27174C45.3004 4.5033 44.236 3.99871 42.9864 3.99871ZM5.99808 4.99839C6.41461 4.99839 6.59978 5.1186 6.74979 5.28736C6.8998 5.45613 6.99776 5.72038 6.99776 5.99807C6.99776 6.27576 6.8998 6.54002 6.74979 6.70879C6.59978 6.87755 6.41461 6.99776 5.99808 6.99776C5.58154 6.99776 5.39637 6.87755 5.24636 6.70879C5.09635 6.54002 4.99839 6.27576 4.99839 5.99807C4.99839 5.72038 5.09635 5.45613 5.24636 5.28736C5.39637 5.1186 5.58154 4.99839 5.99808 4.99839ZM42.9864 5.99807C43.7361 5.99807 44.1712 6.24324 44.4879 6.59945C44.8045 6.95565 44.9858 7.46983 44.9858 7.99744C44.9858 8.52505 44.8045 9.03923 44.4879 9.39544C44.1712 9.75164 43.7361 9.99681 42.9864 9.99681C42.2366 9.99681 41.8015 9.75164 41.4849 9.39544C41.1683 9.03923 40.987 8.52505 40.987 7.99744C40.987 7.46983 41.1683 6.95565 41.4849 6.59945C41.8015 6.24324 42.2366 5.99807 42.9864 5.99807ZM24.9921 6.99776C21.1383 6.99776 17.5658 8.17388 14.5696 10.1569C13.8075 9.45682 12.75 8.99713 11.4963 8.99713C10.0801 8.99713 8.89072 9.5642 8.12436 10.4264C7.35799 11.2885 6.99776 12.3988 6.99776 13.4957C6.99776 14.5926 7.35799 15.7029 8.12436 16.565C8.20475 16.6555 8.30823 16.7274 8.39771 16.8111C6.87999 19.5361 5.99808 22.6585 5.99808 25.9918C5.99808 34.3651 11.4515 41.4776 18.9881 43.9978C18.6082 43.238 18.3281 42.4152 18.1661 41.5435C12.187 38.9083 7.99744 32.9346 7.99744 25.9918C7.99744 23.0197 8.77933 20.2326 10.1276 17.801C10.5525 17.9237 11.0101 17.9943 11.4963 17.9943C12.9126 17.9943 14.102 17.4272 14.8683 16.565C15.6347 15.7029 15.9949 14.5926 15.9949 13.4957C15.9949 12.9232 15.8912 12.3494 15.6884 11.8068C18.3643 10.0419 21.5537 8.99713 24.9921 8.99713C33.7773 8.99713 41.0271 15.6967 41.8988 24.256C42.6116 24.4309 43.2955 24.6914 43.9373 25.0233C43.4284 15.0015 35.1379 6.99776 24.9921 6.99776ZM11.4963 10.9965C12.4127 10.9965 12.9728 11.3041 13.3727 11.7541C13.7726 12.204 13.9955 12.8431 13.9955 13.4957C13.9955 14.1483 13.7726 14.7874 13.3727 15.2373C12.9728 15.6873 12.4127 15.9949 11.4963 15.9949C10.58 15.9949 10.0199 15.6873 9.61998 15.2373C9.22004 14.7874 8.99713 14.1483 8.99713 13.4957C8.99713 12.8431 9.22004 12.204 9.61998 11.7541C10.0199 11.3041 10.58 10.9965 11.4963 10.9965ZM24.9921 13.9955C18.3772 13.9955 12.9959 19.3768 12.9959 25.9918C12.9959 30.0015 14.9808 33.5496 18.0119 35.7289L18.0216 33.1438C16.1572 31.3264 14.9952 28.7939 14.9952 25.9918C14.9952 20.4795 19.4798 15.9949 24.9921 15.9949C30.2904 15.9949 34.6288 20.1418 34.9577 25.3591C35.4025 25.1462 36.0998 24.8374 36.8946 24.5645C36.1858 18.6213 31.1231 13.9955 24.9921 13.9955ZM27.2414 25.9918C23.2503 25.9918 19.9937 29.2484 19.9937 33.2395C19.9937 33.3533 20.006 33.4646 20.0112 33.5772H19.9937V39.9971C19.9942 40.1495 20.0296 40.2998 20.0971 40.4364C20.4202 44.1324 23.4647 47.073 27.2414 47.073C28.215 47.073 29.1727 46.725 29.9807 46.4091C30.7888 46.0932 31.4178 45.7765 31.4178 45.7765C31.4224 45.7739 31.4269 45.7713 31.4314 45.7687C31.9832 45.4795 32.6954 45.2884 33.4894 45.2884C34.2833 45.2884 34.9956 45.4795 35.5473 45.7687C35.5519 45.7713 35.5564 45.7739 35.561 45.7765C35.561 45.7765 36.19 46.0932 36.998 46.4091C37.8061 46.725 38.7638 47.073 39.7374 47.073C43.5134 47.073 46.5577 44.1334 46.8816 40.4384C46.9495 40.3011 46.9849 40.1502 46.9851 39.9971V33.5772H46.9675C46.9728 33.4646 46.9851 33.3533 46.9851 33.2395C46.9851 29.2484 43.7285 25.9918 39.7374 25.9918C38.7638 25.9918 37.8061 26.3397 36.998 26.6556C36.19 26.9715 35.561 27.2882 35.561 27.2882L35.5532 27.2921L35.5473 27.296C34.9956 27.5852 34.2833 27.7763 33.4894 27.7763C32.6954 27.7763 31.9832 27.5852 31.4314 27.296L31.4256 27.2921L31.4178 27.2882C31.4178 27.2882 30.7888 26.9715 29.9807 26.6556C29.1727 26.3397 28.215 25.9918 27.2414 25.9918ZM27.2414 27.9911C27.6353 27.9911 28.5409 28.2374 29.2544 28.5163C29.9602 28.7923 30.4923 29.0611 30.504 29.067C31.3558 29.5135 32.3779 29.7757 33.4894 29.7757C34.6008 29.7757 35.6229 29.5135 36.4748 29.067C36.4865 29.0611 37.0186 28.7923 37.7244 28.5163C38.4378 28.2374 39.3435 27.9911 39.7374 27.9911C42.6481 27.9911 44.9858 30.3287 44.9858 33.2395C44.9858 36.1502 42.6481 38.4878 39.7374 38.4878C39.3435 38.4878 38.4378 38.2415 37.7244 37.9626C37.0186 37.6867 36.4865 37.4178 36.4748 37.412C35.6229 36.9654 34.6008 36.7032 33.4894 36.7032C32.3779 36.7032 31.3558 36.9654 30.504 37.412C30.4923 37.4179 29.9602 37.6867 29.2544 37.9626C28.5409 38.2415 27.6353 38.4878 27.2414 38.4878C24.3306 38.4878 21.993 36.1502 21.993 33.2395C21.993 30.3287 24.3306 27.9911 27.2414 27.9911ZM28.0556 29.9905C27.7904 29.9905 27.5362 30.0958 27.3487 30.2833C27.1612 30.4708 27.0559 30.725 27.0559 30.9902C27.0559 31.2553 27.1612 31.5096 27.3487 31.6971C27.5362 31.8845 27.7904 31.9899 28.0556 31.9899C28.3207 31.9899 28.575 31.8845 28.7624 31.6971C28.9499 31.5096 29.0552 31.2553 29.0552 30.9902C29.0552 30.725 28.9499 30.4708 28.7624 30.2833C28.575 30.0958 28.3207 29.9905 28.0556 29.9905ZM37.0527 30.9902C36.7876 30.9902 36.5333 31.0955 36.3458 31.283C36.1584 31.4704 36.053 31.7247 36.053 31.9899C36.053 32.255 36.1584 32.5093 36.3458 32.6967C36.5333 32.8842 36.7876 32.9895 37.0527 32.9895C37.3178 32.9895 37.5721 32.8842 37.7596 32.6967C37.9471 32.5093 38.0524 32.255 38.0524 31.9899C38.0524 31.7247 37.9471 31.4704 37.7596 31.283C37.5721 31.0955 37.3178 30.9902 37.0527 30.9902ZM41.0515 30.9902C40.7863 30.9902 40.532 31.0955 40.3446 31.283C40.1571 31.4704 40.0518 31.7247 40.0518 31.9899C40.0518 32.255 40.1571 32.5093 40.3446 32.6967C40.532 32.8842 40.7863 32.9895 41.0515 32.9895C41.3166 32.9895 41.5709 32.8842 41.7583 32.6967C41.9458 32.5093 42.0511 32.255 42.0511 31.9899C42.0511 31.7247 41.9458 31.4704 41.7583 31.283C41.5709 31.0955 41.3166 30.9902 41.0515 30.9902ZM25.0565 31.9899C24.7914 31.9899 24.5371 32.0952 24.3496 32.2827C24.1621 32.4701 24.0568 32.7244 24.0568 32.9895C24.0568 33.2547 24.1621 33.5089 24.3496 33.6964C24.5371 33.8839 24.7914 33.9892 25.0565 33.9892C25.3216 33.9892 25.5759 33.8839 25.7634 33.6964C25.9509 33.5089 26.0562 33.2547 26.0562 32.9895C26.0562 32.7244 25.9509 32.4701 25.7634 32.2827C25.5759 32.0952 25.3216 31.9899 25.0565 31.9899ZM30.0549 32.9895C29.7898 32.9895 29.5355 33.0949 29.348 33.2823C29.1606 33.4698 29.0552 33.7241 29.0552 33.9892C29.0552 34.2544 29.1606 34.5086 29.348 34.6961C29.5355 34.8836 29.7898 34.9889 30.0549 34.9889C30.3201 34.9889 30.5743 34.8836 30.7618 34.6961C30.9493 34.5086 31.0546 34.2544 31.0546 33.9892C31.0546 33.7241 30.9493 33.4698 30.7618 33.2823C30.5743 33.0949 30.3201 32.9895 30.0549 32.9895ZM34.0537 32.9895C33.7885 32.9895 33.5343 33.0949 33.3468 33.2823C33.1593 33.4698 33.054 33.7241 33.054 33.9892C33.054 34.2544 33.1593 34.5086 33.3468 34.6961C33.5343 34.8836 33.7885 34.9889 34.0537 34.9889C34.3188 34.9889 34.5731 34.8836 34.7605 34.6961C34.948 34.5086 35.0533 34.2544 35.0533 33.9892C35.0533 33.7241 34.948 33.4698 34.7605 33.2823C34.5731 33.0949 34.3188 32.9895 34.0537 32.9895ZM27.0559 34.9889C26.7907 34.9889 26.5365 35.0942 26.349 35.2817C26.1615 35.4692 26.0562 35.7235 26.0562 35.9886C26.0562 36.2537 26.1615 36.508 26.349 36.6955C26.5365 36.8829 26.7907 36.9883 27.0559 36.9883C27.321 36.9883 27.5753 36.8829 27.7628 36.6955C27.9502 36.508 28.0556 36.2537 28.0556 35.9886C28.0556 35.7235 27.9502 35.4692 27.7628 35.2817C27.5753 35.0942 27.321 34.9889 27.0559 34.9889ZM40.0518 34.9889C39.7866 34.9889 39.5324 35.0942 39.3449 35.2817C39.1574 35.4692 39.0521 35.7235 39.0521 35.9886C39.0521 36.2537 39.1574 36.508 39.3449 36.6955C39.5324 36.8829 39.7866 36.9883 40.0518 36.9883C40.3169 36.9883 40.5712 36.8829 40.7586 36.6955C40.9461 36.508 41.0515 36.2537 41.0515 35.9886C41.0515 35.7235 40.9461 35.4692 40.7586 35.2817C40.5712 35.0942 40.3169 34.9889 40.0518 34.9889ZM21.993 38.2203C23.3153 39.6128 25.1779 40.4872 27.2414 40.4872C28.215 40.4872 29.1727 40.1392 29.9807 39.8233C30.7888 39.5074 31.4178 39.1907 31.4178 39.1907L31.4256 39.1868L31.4314 39.1829C31.9832 38.8937 32.6954 38.7026 33.4894 38.7026C34.2833 38.7026 34.9956 38.8937 35.5473 39.1829L35.5532 39.1868L35.561 39.1907C35.561 39.1907 36.19 39.5074 36.998 39.8233C37.806 40.1392 38.7638 40.4872 39.7374 40.4872C41.8009 40.4872 43.6635 39.6128 44.9858 38.2203V39.876C44.9817 39.9071 44.9791 39.9384 44.9779 39.9698C44.9013 42.811 42.5988 45.0736 39.7374 45.0736C39.3435 45.0736 38.4378 44.8273 37.7244 44.5484C37.0186 44.2725 36.4865 44.0037 36.4748 43.9978C35.6229 43.5512 34.6008 43.289 33.4894 43.289C32.3779 43.289 31.3558 43.5512 30.504 43.9978C30.4923 44.0037 29.9602 44.2725 29.2544 44.5484C28.5409 44.8273 27.6353 45.0736 27.2414 45.0736C24.38 45.0736 22.0775 42.811 22.0008 39.9698C21.9999 39.9364 21.9973 39.9032 21.993 39.8702V38.2203ZM31.0546 39.9873C30.7895 39.9873 30.5352 40.0926 30.3477 40.2801C30.1602 40.4676 30.0549 40.7219 30.0549 40.987C30.0549 41.2521 30.1602 41.5064 30.3477 41.6939C30.5352 41.8814 30.7895 41.9867 31.0546 41.9867C31.3197 41.9867 31.574 41.8814 31.7615 41.6939C31.949 41.5064 32.0543 41.2521 32.0543 40.987C32.0543 40.7219 31.949 40.4676 31.7615 40.2801C31.574 40.0926 31.3197 39.9873 31.0546 39.9873ZM37.0527 40.987C36.7876 40.987 36.5333 41.0923 36.3458 41.2798C36.1584 41.4673 36.053 41.7216 36.053 41.9867C36.053 42.2518 36.1584 42.5061 36.3458 42.6936C36.5333 42.8811 36.7876 42.9864 37.0527 42.9864C37.3178 42.9864 37.5721 42.8811 37.7596 42.6936C37.9471 42.5061 38.0524 42.2518 38.0524 41.9867C38.0524 41.7216 37.9471 41.4673 37.7596 41.2798C37.5721 41.0923 37.3178 40.987 37.0527 40.987ZM42.0511 40.987C41.786 40.987 41.5317 41.0923 41.3443 41.2798C41.1568 41.4673 41.0515 41.7216 41.0515 41.9867C41.0515 42.2518 41.1568 42.5061 41.3443 42.6936C41.5317 42.8811 41.786 42.9864 42.0511 42.9864C42.3163 42.9864 42.5705 42.8811 42.758 42.6936C42.9455 42.5061 43.0508 42.2518 43.0508 41.9867C43.0508 41.7216 42.9455 41.4673 42.758 41.2798C42.5705 41.0923 42.3163 40.987 42.0511 40.987ZM27.0559 41.9867C26.7907 41.9867 26.5365 42.092 26.349 42.2795C26.1615 42.467 26.0562 42.7212 26.0562 42.9864C26.0562 43.2515 26.1615 43.5058 26.349 43.6933C26.5365 43.8807 26.7907 43.9861 27.0559 43.9861C27.321 43.9861 27.5753 43.8807 27.7628 43.6933C27.9502 43.5058 28.0556 43.2515 28.0556 42.9864C28.0556 42.7212 27.9502 42.467 27.7628 42.2795C27.5753 42.092 27.321 41.9867 27.0559 41.9867Z" fill="#616161"/>
</svg>
