<svg width="60" height="34" viewBox="0 0 60 34" fill="none" xmlns="http://www.w3.org/2000/svg">
<g clip-path="url(#clip0_401_2475)">
<path d="M58.8204 12.7995H54.6383V8.39794C54.6383 7.06803 53.5565 5.98603 52.2264 5.98603H49.3917C49.1673 5.98603 48.9508 6.01914 48.7446 6.07675V5.1889C48.7446 3.85898 47.6627 2.77698 46.3327 2.77698H41.65C40.3201 2.77698 39.2381 3.85887 39.2381 5.1889V12.7995H20.4641V5.1889C20.4641 3.85898 19.3822 2.77698 18.0522 2.77698H13.3694C12.0395 2.77698 10.9575 3.85887 10.9575 5.1889V6.07675C10.7512 6.01914 10.5348 5.98603 10.3104 5.98603H7.47594C6.14603 5.98603 5.06402 7.06791 5.06402 8.39794V12.7995H0.881883C0.394463 12.7995 -0.000488281 13.1946 -0.000488281 13.6819V20.5225C-0.000488281 21.0098 0.394463 21.4048 0.881883 21.4048H5.06402V25.8064C5.06402 27.1364 6.14591 28.2184 7.47594 28.2184H10.3106C10.5349 28.2184 10.7515 28.1851 10.9576 28.1276V29.0155C10.9576 30.3454 12.0395 31.4274 13.3695 31.4274H18.0523C19.3822 31.4274 20.4642 30.3454 20.4642 29.0155V21.4048H39.2383V29.0155C39.2383 30.3454 40.3203 31.4274 41.6502 31.4274H46.3329C47.6629 31.4274 48.7449 30.3455 48.7449 29.0155V28.1276C48.9511 28.1852 49.1676 28.2184 49.3919 28.2184H52.2267C53.5566 28.2184 54.6386 27.1365 54.6386 25.8064V21.4048H58.8206C59.308 21.4048 59.703 21.0098 59.703 20.5225V13.6819C59.7027 13.1946 59.3078 12.7995 58.8204 12.7995ZM5.06402 19.6401H1.76437V14.5643H5.06402V19.6401ZM10.9576 25.8066C10.9576 26.1633 10.6674 26.4536 10.3106 26.4536H7.47594C7.11924 26.4536 6.82888 26.1634 6.82888 25.8066V20.5225V13.6819V8.39783C6.82888 8.04101 7.11924 7.75077 7.47594 7.75077H10.3106C10.6674 7.75077 10.9576 8.04101 10.9576 8.39783V25.8066ZM18.6992 13.682V20.5226V29.0155C18.6992 29.3723 18.4089 29.6626 18.0522 29.6626H13.3694C13.0127 29.6626 12.7224 29.3723 12.7224 29.0155V25.8064V8.39783V5.1889C12.7224 4.83208 13.0127 4.54184 13.3694 4.54184H18.0522C18.4089 4.54184 18.6992 4.83208 18.6992 5.1889V13.682ZM39.2381 19.6401H20.4641V14.5643H39.2381V19.6401ZM46.9799 8.39771V25.8064V29.0156C46.9799 29.3724 46.6895 29.6627 46.3328 29.6627H41.6501C41.2934 29.6627 41.003 29.3724 41.003 29.0156V20.5226V13.682V5.18901C41.003 4.83219 41.2934 4.54195 41.6501 4.54195H46.3328C46.6895 4.54195 46.9799 4.83219 46.9799 5.18901V8.39771ZM52.8736 13.6819V20.5225V25.8066C52.8736 26.1634 52.5832 26.4536 52.2265 26.4536H49.3918C49.0351 26.4536 48.7447 26.1634 48.7447 25.8066V8.39783C48.7447 8.04101 49.0351 7.75077 49.3918 7.75077H52.2265C52.5832 7.75077 52.8736 8.04101 52.8736 8.39783V13.6819ZM57.9379 19.6401H54.6383V14.5643H57.9379V19.6401Z" fill="#616161"/>
</g>
<defs>
<clipPath id="clip0_401_2475">
<rect width="59.7033" height="33.3228" fill="white"/>
</clipPath>
</defs>
</svg>
