<svg width="50" height="51" viewBox="0 0 50 51" fill="none" xmlns="http://www.w3.org/2000/svg">
<path d="M5.99808 3.96729C5.0817 3.96729 4.26718 4.34692 3.75074 4.92792C3.2343 5.50892 2.99902 6.24434 2.99902 6.96634C2.99902 7.68833 3.2343 8.42376 3.75074 9.00475C4.26718 9.58575 5.0817 9.96539 5.99808 9.96539C6.91445 9.96539 7.72897 9.58575 8.24541 9.00475C8.76185 8.42376 8.99713 7.68833 8.99713 6.96634C8.99713 6.24434 8.76185 5.50892 8.24541 4.92792C7.72897 4.34692 6.91445 3.96729 5.99808 3.96729ZM42.9864 4.96697C41.7368 4.96697 40.6723 5.47156 39.9893 6.24C39.3062 7.00844 38.9877 7.99379 38.9877 8.9657C38.9877 9.93762 39.3062 10.923 39.9893 11.6914C40.6723 12.4598 41.7368 12.9644 42.9864 12.9644C44.236 12.9644 45.3004 12.4598 45.9835 11.6914C46.6665 10.923 46.9851 9.93762 46.9851 8.9657C46.9851 7.99379 46.6665 7.00844 45.9835 6.24C45.3004 5.47156 44.236 4.96697 42.9864 4.96697ZM5.99808 5.96665C6.41461 5.96665 6.59978 6.08686 6.74979 6.25562C6.8998 6.42439 6.99776 6.68865 6.99776 6.96634C6.99776 7.24403 6.8998 7.50828 6.74979 7.67705C6.59978 7.84581 6.41461 7.96602 5.99808 7.96602C5.58154 7.96602 5.39637 7.84581 5.24636 7.67705C5.09635 7.50828 4.99839 7.24403 4.99839 6.96634C4.99839 6.68865 5.09635 6.42439 5.24636 6.25562C5.39637 6.08686 5.58154 5.96665 5.99808 5.96665ZM42.9864 6.96634C43.7361 6.96634 44.1712 7.2115 44.4879 7.56771C44.8045 7.92391 44.9858 8.43809 44.9858 8.9657C44.9858 9.49332 44.8045 10.0075 44.4879 10.3637C44.1712 10.7199 43.7361 10.9651 42.9864 10.9651C42.2366 10.9651 41.8015 10.7199 41.4849 10.3637C41.1683 10.0075 40.987 9.49332 40.987 8.9657C40.987 8.43809 41.1683 7.92391 41.4849 7.56771C41.8015 7.2115 42.2366 6.96634 42.9864 6.96634ZM24.9921 7.96602C21.1383 7.96602 17.5658 9.14214 14.5696 11.1252C13.8075 10.4251 12.75 9.96539 11.4963 9.96539C10.0801 9.96539 8.89072 10.5325 8.12436 11.3946C7.35799 12.2568 6.99776 13.3671 6.99776 14.464C6.99776 15.5608 7.35799 16.6711 8.12436 17.5333C8.20475 17.6237 8.30823 17.6957 8.39771 17.7793C6.87999 20.5043 5.99808 23.6268 5.99808 26.96C5.99808 35.3334 11.4515 42.4458 18.9881 44.966C18.6082 44.2063 18.3281 43.3835 18.1661 42.5117C12.187 39.8766 7.99744 33.9028 7.99744 26.96C7.99744 23.988 8.77933 21.2008 10.1276 18.7692C10.5525 18.8919 11.0101 18.9625 11.4963 18.9625C12.9126 18.9625 14.102 18.3955 14.8683 17.5333C15.6347 16.6711 15.9949 15.5608 15.9949 14.464C15.9949 13.8914 15.8912 13.3177 15.6884 12.775C18.3643 11.0101 21.5537 9.96539 24.9921 9.96539C33.7773 9.96539 41.0271 16.6649 41.8988 25.2242C42.6116 25.3992 43.2955 25.6597 43.9373 25.9916C43.4284 15.9697 35.1379 7.96602 24.9921 7.96602ZM11.4963 11.9648C12.4127 11.9648 12.9728 12.2724 13.3727 12.7223C13.7726 13.1723 13.9955 13.8114 13.9955 14.464C13.9955 15.1165 13.7726 15.7557 13.3727 16.2056C12.9728 16.6555 12.4127 16.9632 11.4963 16.9632C10.58 16.9632 10.0199 16.6555 9.61998 16.2056C9.22004 15.7557 8.99713 15.1165 8.99713 14.464C8.99713 13.8114 9.22004 13.1723 9.61998 12.7223C10.0199 12.2724 10.58 11.9648 11.4963 11.9648ZM24.9921 14.9638C18.3772 14.9638 12.9959 20.3451 12.9959 26.96C12.9959 30.9697 14.9808 34.5179 18.0119 36.6972L18.0216 34.112C16.1572 32.2946 14.9952 29.7621 14.9952 26.96C14.9952 21.4478 19.4798 16.9632 24.9921 16.9632C30.2904 16.9632 34.6288 21.1101 34.9577 26.3274C35.4025 26.1145 36.0998 25.8056 36.8946 25.5327C36.1858 19.5896 31.1231 14.9638 24.9921 14.9638ZM27.2414 26.96C23.2503 26.96 19.9937 30.2166 19.9937 34.2077C19.9937 34.3216 20.006 34.4329 20.0112 34.5455H19.9937V40.9653C19.9942 41.1178 20.0296 41.268 20.0971 41.4047C20.4202 45.1006 23.4647 48.0412 27.2414 48.0412C28.215 48.0412 29.1727 47.6933 29.9807 47.3774C30.7888 47.0615 31.4178 46.7448 31.4178 46.7448C31.4224 46.7422 31.4269 46.7396 31.4314 46.737C31.9832 46.4477 32.6954 46.2566 33.4894 46.2566C34.2833 46.2566 34.9956 46.4477 35.5473 46.737C35.5519 46.7396 35.5564 46.7422 35.561 46.7448C35.561 46.7448 36.19 47.0615 36.998 47.3774C37.8061 47.6933 38.7638 48.0412 39.7374 48.0412C43.5134 48.0412 46.5577 45.1016 46.8816 41.4066C46.9495 41.2694 46.9849 41.1184 46.9851 40.9653V34.5455H46.9675C46.9728 34.4329 46.9851 34.3216 46.9851 34.2077C46.9851 30.2166 43.7285 26.96 39.7374 26.96C38.7638 26.96 37.8061 27.308 36.998 27.6239C36.19 27.9398 35.561 28.2565 35.561 28.2565L35.5532 28.2604L35.5473 28.2643C34.9956 28.5535 34.2833 28.7446 33.4894 28.7446C32.6954 28.7446 31.9832 28.5535 31.4314 28.2643L31.4256 28.2604L31.4178 28.2565C31.4178 28.2565 30.7888 27.9398 29.9807 27.6239C29.1727 27.308 28.215 26.96 27.2414 26.96ZM27.2414 28.9594C27.6353 28.9594 28.5409 29.2057 29.2544 29.4846C29.9602 29.7605 30.4923 30.0293 30.504 30.0352C31.3558 30.4818 32.3779 30.744 33.4894 30.744C34.6008 30.744 35.6229 30.4818 36.4748 30.0352C36.4865 30.0293 37.0186 29.7605 37.7244 29.4846C38.4378 29.2057 39.3435 28.9594 39.7374 28.9594C42.6481 28.9594 44.9858 31.297 44.9858 34.2077C44.9858 37.1184 42.6481 39.4561 39.7374 39.4561C39.3435 39.4561 38.4378 39.2098 37.7244 38.9308C37.0186 38.6549 36.4865 38.3861 36.4748 38.3802C35.6229 37.9337 34.6008 37.6715 33.4894 37.6715C32.3779 37.6715 31.3558 37.9337 30.504 38.3802C30.4923 38.3861 29.9602 38.6549 29.2544 38.9308C28.5409 39.2098 27.6353 39.4561 27.2414 39.4561C24.3306 39.4561 21.993 37.1184 21.993 34.2077C21.993 31.297 24.3306 28.9594 27.2414 28.9594ZM28.0556 30.9587C27.7904 30.9587 27.5362 31.0641 27.3487 31.2515C27.1612 31.439 27.0559 31.6933 27.0559 31.9584C27.0559 32.2236 27.1612 32.4778 27.3487 32.6653C27.5362 32.8528 27.7904 32.9581 28.0556 32.9581C28.3207 32.9581 28.575 32.8528 28.7624 32.6653C28.9499 32.4778 29.0552 32.2236 29.0552 31.9584C29.0552 31.6933 28.9499 31.439 28.7624 31.2515C28.575 31.0641 28.3207 30.9587 28.0556 30.9587ZM37.0527 31.9584C36.7876 31.9584 36.5333 32.0638 36.3458 32.2512C36.1584 32.4387 36.053 32.693 36.053 32.9581C36.053 33.2232 36.1584 33.4775 36.3458 33.665C36.5333 33.8525 36.7876 33.9578 37.0527 33.9578C37.3178 33.9578 37.5721 33.8525 37.7596 33.665C37.9471 33.4775 38.0524 33.2232 38.0524 32.9581C38.0524 32.693 37.9471 32.4387 37.7596 32.2512C37.5721 32.0638 37.3178 31.9584 37.0527 31.9584ZM41.0515 31.9584C40.7863 31.9584 40.532 32.0638 40.3446 32.2512C40.1571 32.4387 40.0518 32.693 40.0518 32.9581C40.0518 33.2232 40.1571 33.4775 40.3446 33.665C40.532 33.8525 40.7863 33.9578 41.0515 33.9578C41.3166 33.9578 41.5709 33.8525 41.7583 33.665C41.9458 33.4775 42.0511 33.2232 42.0511 32.9581C42.0511 32.693 41.9458 32.4387 41.7583 32.2512C41.5709 32.0638 41.3166 31.9584 41.0515 31.9584ZM25.0565 32.9581C24.7914 32.9581 24.5371 33.0634 24.3496 33.2509C24.1621 33.4384 24.0568 33.6927 24.0568 33.9578C24.0568 34.2229 24.1621 34.4772 24.3496 34.6647C24.5371 34.8522 24.7914 34.9575 25.0565 34.9575C25.3216 34.9575 25.5759 34.8522 25.7634 34.6647C25.9509 34.4772 26.0562 34.2229 26.0562 33.9578C26.0562 33.6927 25.9509 33.4384 25.7634 33.2509C25.5759 33.0634 25.3216 32.9581 25.0565 32.9581ZM30.0549 33.9578C29.7898 33.9578 29.5355 34.0631 29.348 34.2506C29.1606 34.4381 29.0552 34.6924 29.0552 34.9575C29.0552 35.2226 29.1606 35.4769 29.348 35.6644C29.5355 35.8518 29.7898 35.9572 30.0549 35.9572C30.3201 35.9572 30.5743 35.8518 30.7618 35.6644C30.9493 35.4769 31.0546 35.2226 31.0546 34.9575C31.0546 34.6924 30.9493 34.4381 30.7618 34.2506C30.5743 34.0631 30.3201 33.9578 30.0549 33.9578ZM34.0537 33.9578C33.7885 33.9578 33.5343 34.0631 33.3468 34.2506C33.1593 34.4381 33.054 34.6924 33.054 34.9575C33.054 35.2226 33.1593 35.4769 33.3468 35.6644C33.5343 35.8518 33.7885 35.9572 34.0537 35.9572C34.3188 35.9572 34.5731 35.8518 34.7605 35.6644C34.948 35.4769 35.0533 35.2226 35.0533 34.9575C35.0533 34.6924 34.948 34.4381 34.7605 34.2506C34.5731 34.0631 34.3188 33.9578 34.0537 33.9578ZM27.0559 35.9572C26.7907 35.9572 26.5365 36.0625 26.349 36.25C26.1615 36.4374 26.0562 36.6917 26.0562 36.9568C26.0562 37.222 26.1615 37.4763 26.349 37.6637C26.5365 37.8512 26.7907 37.9565 27.0559 37.9565C27.321 37.9565 27.5753 37.8512 27.7628 37.6637C27.9502 37.4763 28.0556 37.222 28.0556 36.9568C28.0556 36.6917 27.9502 36.4374 27.7628 36.25C27.5753 36.0625 27.321 35.9572 27.0559 35.9572ZM40.0518 35.9572C39.7866 35.9572 39.5324 36.0625 39.3449 36.25C39.1574 36.4374 39.0521 36.6917 39.0521 36.9568C39.0521 37.222 39.1574 37.4763 39.3449 37.6637C39.5324 37.8512 39.7866 37.9565 40.0518 37.9565C40.3169 37.9565 40.5712 37.8512 40.7586 37.6637C40.9461 37.4763 41.0515 37.222 41.0515 36.9568C41.0515 36.6917 40.9461 36.4374 40.7586 36.25C40.5712 36.0625 40.3169 35.9572 40.0518 35.9572ZM21.993 39.1886C23.3153 40.5811 25.1779 41.4554 27.2414 41.4554C28.215 41.4554 29.1727 41.1075 29.9807 40.7916C30.7888 40.4757 31.4178 40.159 31.4178 40.159L31.4256 40.1551L31.4314 40.1512C31.9832 39.8619 32.6954 39.6708 33.4894 39.6708C34.2833 39.6708 34.9956 39.8619 35.5473 40.1512L35.5532 40.1551L35.561 40.159C35.561 40.159 36.19 40.4757 36.998 40.7916C37.806 41.1075 38.7638 41.4554 39.7374 41.4554C41.8009 41.4554 43.6635 40.5811 44.9858 39.1886V40.8443C44.9817 40.8754 44.9791 40.9067 44.9779 40.938C44.9013 43.7793 42.5988 46.0419 39.7374 46.0419C39.3435 46.0419 38.4378 45.7956 37.7244 45.5166C37.0186 45.2407 36.4865 44.9719 36.4748 44.966C35.6229 44.5195 34.6008 44.2573 33.4894 44.2573C32.3779 44.2573 31.3558 44.5195 30.504 44.966C30.4923 44.9719 29.9602 45.2407 29.2544 45.5166C28.5409 45.7956 27.6353 46.0419 27.2414 46.0419C24.38 46.0419 22.0775 43.7793 22.0008 40.938C21.9999 40.9047 21.9973 40.8715 21.993 40.8384V39.1886ZM31.0546 40.9556C30.7895 40.9556 30.5352 41.0609 30.3477 41.2484C30.1602 41.4359 30.0549 41.6901 30.0549 41.9553C30.0549 42.2204 30.1602 42.4747 30.3477 42.6622C30.5352 42.8496 30.7895 42.955 31.0546 42.955C31.3197 42.955 31.574 42.8496 31.7615 42.6622C31.949 42.4747 32.0543 42.2204 32.0543 41.9553C32.0543 41.6901 31.949 41.4359 31.7615 41.2484C31.574 41.0609 31.3197 40.9556 31.0546 40.9556ZM37.0527 41.9553C36.7876 41.9553 36.5333 42.0606 36.3458 42.2481C36.1584 42.4355 36.053 42.6898 36.053 42.955C36.053 43.2201 36.1584 43.4744 36.3458 43.6618C36.5333 43.8493 36.7876 43.9546 37.0527 43.9546C37.3178 43.9546 37.5721 43.8493 37.7596 43.6618C37.9471 43.4744 38.0524 43.2201 38.0524 42.955C38.0524 42.6898 37.9471 42.4355 37.7596 42.2481C37.5721 42.0606 37.3178 41.9553 37.0527 41.9553ZM42.0511 41.9553C41.786 41.9553 41.5317 42.0606 41.3443 42.2481C41.1568 42.4355 41.0515 42.6898 41.0515 42.955C41.0515 43.2201 41.1568 43.4744 41.3443 43.6618C41.5317 43.8493 41.786 43.9546 42.0511 43.9546C42.3163 43.9546 42.5705 43.8493 42.758 43.6618C42.9455 43.4744 43.0508 43.2201 43.0508 42.955C43.0508 42.6898 42.9455 42.4355 42.758 42.2481C42.5705 42.0606 42.3163 41.9553 42.0511 41.9553ZM27.0559 42.955C26.7907 42.955 26.5365 43.0603 26.349 43.2478C26.1615 43.4352 26.0562 43.6895 26.0562 43.9546C26.0562 44.2198 26.1615 44.474 26.349 44.6615C26.5365 44.849 26.7907 44.9543 27.0559 44.9543C27.321 44.9543 27.5753 44.849 27.7628 44.6615C27.9502 44.474 28.0556 44.2198 28.0556 43.9546C28.0556 43.6895 27.9502 43.4352 27.7628 43.2478C27.5753 43.0603 27.321 42.955 27.0559 42.955Z" fill="#FFBC2C"/>
</svg>
