<svg width="60" height="34" viewBox="0 0 60 34" fill="none" xmlns="http://www.w3.org/2000/svg">
<g clip-path="url(#clip0_401_2491)">
<path d="M58.8204 13.1223H54.6383V8.7207C54.6383 7.39078 53.5565 6.30878 52.2264 6.30878H49.3917C49.1673 6.30878 48.9508 6.3419 48.7446 6.3995V5.51165C48.7446 4.18174 47.6627 3.09973 46.3327 3.09973H41.65C40.3201 3.09973 39.2381 4.18162 39.2381 5.51165V13.1223H20.4641V5.51165C20.4641 4.18174 19.3822 3.09973 18.0522 3.09973H13.3694C12.0395 3.09973 10.9575 4.18162 10.9575 5.51165V6.3995C10.7512 6.3419 10.5348 6.30878 10.3104 6.30878H7.47594C6.14603 6.30878 5.06402 7.39067 5.06402 8.7207V13.1223H0.881883C0.394463 13.1223 -0.000488281 13.5174 -0.000488281 14.0047V20.8452C-0.000488281 21.3325 0.394463 21.7276 0.881883 21.7276H5.06402V26.1292C5.06402 27.4591 6.14591 28.5411 7.47594 28.5411H10.3106C10.5349 28.5411 10.7515 28.5079 10.9576 28.4504V29.3382C10.9576 30.6682 12.0395 31.7502 13.3695 31.7502H18.0523C19.3822 31.7502 20.4642 30.6682 20.4642 29.3382V21.7276H39.2383V29.3382C39.2383 30.6682 40.3203 31.7502 41.6502 31.7502H46.3329C47.6629 31.7502 48.7449 30.6683 48.7449 29.3382V28.4504C48.9511 28.508 49.1676 28.5411 49.3919 28.5411H52.2267C53.5566 28.5411 54.6386 27.4592 54.6386 26.1292V21.7276H58.8206C59.308 21.7276 59.703 21.3325 59.703 20.8452V14.0047C59.7027 13.5174 59.3078 13.1223 58.8204 13.1223ZM5.06402 19.9629H1.76437V14.887H5.06402V19.9629ZM10.9576 26.1293C10.9576 26.486 10.6674 26.7764 10.3106 26.7764H7.47594C7.11924 26.7764 6.82888 26.4861 6.82888 26.1293V20.8452V14.0047V8.72058C6.82888 8.36376 7.11924 8.07352 7.47594 8.07352H10.3106C10.6674 8.07352 10.9576 8.36376 10.9576 8.72058V26.1293ZM18.6992 14.0048V20.8454V29.3382C18.6992 29.6951 18.4089 29.9853 18.0522 29.9853H13.3694C13.0127 29.9853 12.7224 29.6951 12.7224 29.3382V26.1292V8.72058V5.51165C12.7224 5.15483 13.0127 4.86459 13.3694 4.86459H18.0522C18.4089 4.86459 18.6992 5.15483 18.6992 5.51165V14.0048ZM39.2381 19.9629H20.4641V14.887H39.2381V19.9629ZM46.9799 8.72046V26.1292V29.3384C46.9799 29.6952 46.6895 29.9854 46.3328 29.9854H41.6501C41.2934 29.9854 41.003 29.6952 41.003 29.3384V20.8454V14.0048V5.51176C41.003 5.15494 41.2934 4.86471 41.6501 4.86471H46.3328C46.6895 4.86471 46.9799 5.15494 46.9799 5.51176V8.72046ZM52.8736 14.0047V20.8452V26.1293C52.8736 26.4861 52.5832 26.7764 52.2265 26.7764H49.3918C49.0351 26.7764 48.7447 26.4861 48.7447 26.1293V8.72058C48.7447 8.36376 49.0351 8.07352 49.3918 8.07352H52.2265C52.5832 8.07352 52.8736 8.36376 52.8736 8.72058V14.0047ZM57.9379 19.9629H54.6383V14.887H57.9379V19.9629Z" fill="black"/>
</g>
<defs>
<clipPath id="clip0_401_2491">
<rect width="59.7033" height="33.3228" fill="white" transform="translate(0 0.322754)"/>
</clipPath>
</defs>
</svg>
