<svg width="50" height="51" viewBox="0 0 50 51" fill="none" xmlns="http://www.w3.org/2000/svg">
<path d="M5.99808 3.98315C5.0817 3.98315 4.26718 4.36279 3.75074 4.94379C3.2343 5.52479 2.99902 6.26021 2.99902 6.98221C2.99902 7.7042 3.2343 8.43963 3.75074 9.02062C4.26718 9.60162 5.0817 9.98126 5.99808 9.98126C6.91445 9.98126 7.72897 9.60162 8.24541 9.02062C8.76185 8.43963 8.99713 7.7042 8.99713 6.98221C8.99713 6.26021 8.76185 5.52479 8.24541 4.94379C7.72897 4.36279 6.91445 3.98315 5.99808 3.98315ZM42.9864 4.98284C41.7368 4.98284 40.6723 5.48743 39.9893 6.25587C39.3062 7.02431 38.9877 8.00966 38.9877 8.98157C38.9877 9.95349 39.3062 10.9388 39.9893 11.7073C40.6723 12.4757 41.7368 12.9803 42.9864 12.9803C44.236 12.9803 45.3004 12.4757 45.9835 11.7073C46.6665 10.9388 46.9851 9.95349 46.9851 8.98157C46.9851 8.00966 46.6665 7.02431 45.9835 6.25587C45.3004 5.48743 44.236 4.98284 42.9864 4.98284ZM5.99808 5.98252C6.41461 5.98252 6.59978 6.10273 6.74979 6.27149C6.8998 6.44026 6.99776 6.70452 6.99776 6.98221C6.99776 7.2599 6.8998 7.52415 6.74979 7.69292C6.59978 7.86168 6.41461 7.98189 5.99808 7.98189C5.58154 7.98189 5.39637 7.86168 5.24636 7.69292C5.09635 7.52415 4.99839 7.2599 4.99839 6.98221C4.99839 6.70452 5.09635 6.44026 5.24636 6.27149C5.39637 6.10273 5.58154 5.98252 5.99808 5.98252ZM42.9864 6.98221C43.7361 6.98221 44.1712 7.22737 44.4879 7.58358C44.8045 7.93978 44.9858 8.45396 44.9858 8.98157C44.9858 9.50918 44.8045 10.0234 44.4879 10.3796C44.1712 10.7358 43.7361 10.9809 42.9864 10.9809C42.2366 10.9809 41.8015 10.7358 41.4849 10.3796C41.1683 10.0234 40.987 9.50918 40.987 8.98157C40.987 8.45396 41.1683 7.93978 41.4849 7.58358C41.8015 7.22737 42.2366 6.98221 42.9864 6.98221ZM24.9921 7.98189C21.1383 7.98189 17.5658 9.15801 14.5696 11.141C13.8075 10.4409 12.75 9.98126 11.4963 9.98126C10.0801 9.98126 8.89072 10.5483 8.12436 11.4105C7.35799 12.2727 6.99776 13.383 6.99776 14.4798C6.99776 15.5767 7.35799 16.687 8.12436 17.5492C8.20475 17.6396 8.30823 17.7116 8.39771 17.7952C6.87999 20.5202 5.99808 23.6426 5.99808 26.9759C5.99808 35.3492 11.4515 42.4617 18.9881 44.9819C18.6082 44.2221 18.3281 43.3993 18.1661 42.5276C12.187 39.8924 7.99744 33.9187 7.99744 26.9759C7.99744 24.0038 8.77933 21.2167 10.1276 18.7851C10.5525 18.9078 11.0101 18.9784 11.4963 18.9784C12.9126 18.9784 14.102 18.4113 14.8683 17.5492C15.6347 16.687 15.9949 15.5767 15.9949 14.4798C15.9949 13.9073 15.8912 13.3336 15.6884 12.7909C18.3643 11.026 21.5537 9.98126 24.9921 9.98126C33.7773 9.98126 41.0271 16.6808 41.8988 25.2401C42.6116 25.415 43.2955 25.6755 43.9373 26.0074C43.4284 15.9856 35.1379 7.98189 24.9921 7.98189ZM11.4963 11.9806C12.4127 11.9806 12.9728 12.2883 13.3727 12.7382C13.7726 13.1881 13.9955 13.8273 13.9955 14.4798C13.9955 15.1324 13.7726 15.7715 13.3727 16.2215C12.9728 16.6714 12.4127 16.979 11.4963 16.979C10.58 16.979 10.0199 16.6714 9.61998 16.2215C9.22004 15.7715 8.99713 15.1324 8.99713 14.4798C8.99713 13.8273 9.22004 13.1881 9.61998 12.7382C10.0199 12.2883 10.58 11.9806 11.4963 11.9806ZM24.9921 14.9797C18.3772 14.9797 12.9959 20.361 12.9959 26.9759C12.9959 30.9856 14.9808 34.5337 18.0119 36.713L18.0216 34.1279C16.1572 32.3105 14.9952 29.778 14.9952 26.9759C14.9952 21.4636 19.4798 16.979 24.9921 16.979C30.2904 16.979 34.6288 21.1259 34.9577 26.3433C35.4025 26.1303 36.0998 25.8215 36.8946 25.5486C36.1858 19.6055 31.1231 14.9797 24.9921 14.9797ZM27.2414 26.9759C23.2503 26.9759 19.9937 30.2325 19.9937 34.2236C19.9937 34.3375 20.006 34.4488 20.0112 34.5614H19.9937V40.9812C19.9942 41.1336 20.0296 41.2839 20.0971 41.4205C20.4202 45.1165 23.4647 48.0571 27.2414 48.0571C28.215 48.0571 29.1727 47.7091 29.9807 47.3933C30.7888 47.0774 31.4178 46.7606 31.4178 46.7606C31.4224 46.7581 31.4269 46.7555 31.4314 46.7528C31.9832 46.4636 32.6954 46.2725 33.4894 46.2725C34.2833 46.2725 34.9956 46.4636 35.5473 46.7528C35.5519 46.7555 35.5564 46.7581 35.561 46.7606C35.561 46.7606 36.19 47.0774 36.998 47.3933C37.8061 47.7091 38.7638 48.0571 39.7374 48.0571C43.5134 48.0571 46.5577 45.1175 46.8816 41.4225C46.9495 41.2853 46.9849 41.1343 46.9851 40.9812V34.5614H46.9675C46.9728 34.4488 46.9851 34.3375 46.9851 34.2236C46.9851 30.2325 43.7285 26.9759 39.7374 26.9759C38.7638 26.9759 37.8061 27.3238 36.998 27.6397C36.19 27.9556 35.561 28.2723 35.561 28.2723L35.5532 28.2763L35.5473 28.2802C34.9956 28.5694 34.2833 28.7605 33.4894 28.7605C32.6954 28.7605 31.9832 28.5694 31.4314 28.2802L31.4256 28.2763L31.4178 28.2723C31.4178 28.2723 30.7888 27.9556 29.9807 27.6397C29.1727 27.3238 28.215 26.9759 27.2414 26.9759ZM27.2414 28.9753C27.6353 28.9753 28.5409 29.2216 29.2544 29.5005C29.9602 29.7764 30.4923 30.0452 30.504 30.0511C31.3558 30.4976 32.3779 30.7598 33.4894 30.7598C34.6008 30.7598 35.6229 30.4976 36.4748 30.0511C36.4865 30.0452 37.0186 29.7764 37.7244 29.5005C38.4378 29.2216 39.3435 28.9753 39.7374 28.9753C42.6481 28.9753 44.9858 31.3129 44.9858 34.2236C44.9858 37.1343 42.6481 39.4719 39.7374 39.4719C39.3435 39.4719 38.4378 39.2256 37.7244 38.9467C37.0186 38.6708 36.4865 38.402 36.4748 38.3961C35.6229 37.9496 34.6008 37.6873 33.4894 37.6873C32.3779 37.6873 31.3558 37.9496 30.504 38.3961C30.4923 38.402 29.9602 38.6708 29.2544 38.9467C28.5409 39.2256 27.6353 39.4719 27.2414 39.4719C24.3306 39.4719 21.993 37.1343 21.993 34.2236C21.993 31.3129 24.3306 28.9753 27.2414 28.9753ZM28.0556 30.9746C27.7904 30.9746 27.5362 31.0799 27.3487 31.2674C27.1612 31.4549 27.0559 31.7092 27.0559 31.9743C27.0559 32.2394 27.1612 32.4937 27.3487 32.6812C27.5362 32.8687 27.7904 32.974 28.0556 32.974C28.3207 32.974 28.575 32.8687 28.7624 32.6812C28.9499 32.4937 29.0552 32.2394 29.0552 31.9743C29.0552 31.7092 28.9499 31.4549 28.7624 31.2674C28.575 31.0799 28.3207 30.9746 28.0556 30.9746ZM37.0527 31.9743C36.7876 31.9743 36.5333 32.0796 36.3458 32.2671C36.1584 32.4546 36.053 32.7089 36.053 32.974C36.053 33.2391 36.1584 33.4934 36.3458 33.6809C36.5333 33.8683 36.7876 33.9737 37.0527 33.9737C37.3178 33.9737 37.5721 33.8683 37.7596 33.6809C37.9471 33.4934 38.0524 33.2391 38.0524 32.974C38.0524 32.7089 37.9471 32.4546 37.7596 32.2671C37.5721 32.0796 37.3178 31.9743 37.0527 31.9743ZM41.0515 31.9743C40.7863 31.9743 40.532 32.0796 40.3446 32.2671C40.1571 32.4546 40.0518 32.7089 40.0518 32.974C40.0518 33.2391 40.1571 33.4934 40.3446 33.6809C40.532 33.8683 40.7863 33.9737 41.0515 33.9737C41.3166 33.9737 41.5709 33.8683 41.7583 33.6809C41.9458 33.4934 42.0511 33.2391 42.0511 32.974C42.0511 32.7089 41.9458 32.4546 41.7583 32.2671C41.5709 32.0796 41.3166 31.9743 41.0515 31.9743ZM25.0565 32.974C24.7914 32.974 24.5371 33.0793 24.3496 33.2668C24.1621 33.4543 24.0568 33.7085 24.0568 33.9737C24.0568 34.2388 24.1621 34.4931 24.3496 34.6806C24.5371 34.868 24.7914 34.9734 25.0565 34.9734C25.3216 34.9734 25.5759 34.868 25.7634 34.6806C25.9509 34.4931 26.0562 34.2388 26.0562 33.9737C26.0562 33.7085 25.9509 33.4543 25.7634 33.2668C25.5759 33.0793 25.3216 32.974 25.0565 32.974ZM30.0549 33.9737C29.7898 33.9737 29.5355 34.079 29.348 34.2665C29.1606 34.4539 29.0552 34.7082 29.0552 34.9734C29.0552 35.2385 29.1606 35.4928 29.348 35.6802C29.5355 35.8677 29.7898 35.973 30.0549 35.973C30.3201 35.973 30.5743 35.8677 30.7618 35.6802C30.9493 35.4928 31.0546 35.2385 31.0546 34.9734C31.0546 34.7082 30.9493 34.4539 30.7618 34.2665C30.5743 34.079 30.3201 33.9737 30.0549 33.9737ZM34.0537 33.9737C33.7885 33.9737 33.5343 34.079 33.3468 34.2665C33.1593 34.4539 33.054 34.7082 33.054 34.9734C33.054 35.2385 33.1593 35.4928 33.3468 35.6802C33.5343 35.8677 33.7885 35.973 34.0537 35.973C34.3188 35.973 34.5731 35.8677 34.7605 35.6802C34.948 35.4928 35.0533 35.2385 35.0533 34.9734C35.0533 34.7082 34.948 34.4539 34.7605 34.2665C34.5731 34.079 34.3188 33.9737 34.0537 33.9737ZM27.0559 35.973C26.7907 35.973 26.5365 36.0784 26.349 36.2658C26.1615 36.4533 26.0562 36.7076 26.0562 36.9727C26.0562 37.2379 26.1615 37.4921 26.349 37.6796C26.5365 37.8671 26.7907 37.9724 27.0559 37.9724C27.321 37.9724 27.5753 37.8671 27.7628 37.6796C27.9502 37.4921 28.0556 37.2379 28.0556 36.9727C28.0556 36.7076 27.9502 36.4533 27.7628 36.2658C27.5753 36.0784 27.321 35.973 27.0559 35.973ZM40.0518 35.973C39.7866 35.973 39.5324 36.0784 39.3449 36.2658C39.1574 36.4533 39.0521 36.7076 39.0521 36.9727C39.0521 37.2379 39.1574 37.4921 39.3449 37.6796C39.5324 37.8671 39.7866 37.9724 40.0518 37.9724C40.3169 37.9724 40.5712 37.8671 40.7586 37.6796C40.9461 37.4921 41.0515 37.2379 41.0515 36.9727C41.0515 36.7076 40.9461 36.4533 40.7586 36.2658C40.5712 36.0784 40.3169 35.973 40.0518 35.973ZM21.993 39.2044C23.3153 40.5969 25.1779 41.4713 27.2414 41.4713C28.215 41.4713 29.1727 41.1233 29.9807 40.8074C30.7888 40.4915 31.4178 40.1748 31.4178 40.1748L31.4256 40.1709L31.4314 40.167C31.9832 39.8778 32.6954 39.6867 33.4894 39.6867C34.2833 39.6867 34.9956 39.8778 35.5473 40.167L35.5532 40.1709L35.561 40.1748C35.561 40.1748 36.19 40.4915 36.998 40.8074C37.806 41.1233 38.7638 41.4713 39.7374 41.4713C41.8009 41.4713 43.6635 40.5969 44.9858 39.2044V40.8602C44.9817 40.8913 44.9791 40.9225 44.9779 40.9539C44.9013 43.7951 42.5988 46.0577 39.7374 46.0577C39.3435 46.0577 38.4378 45.8114 37.7244 45.5325C37.0186 45.2566 36.4865 44.9878 36.4748 44.9819C35.6229 44.5354 34.6008 44.2731 33.4894 44.2731C32.3779 44.2731 31.3558 44.5354 30.504 44.9819C30.4923 44.9878 29.9602 45.2566 29.2544 45.5325C28.5409 45.8114 27.6353 46.0577 27.2414 46.0577C24.38 46.0577 22.0775 43.7951 22.0008 40.9539C21.9999 40.9206 21.9973 40.8873 21.993 40.8543V39.2044ZM31.0546 40.9715C30.7895 40.9715 30.5352 41.0768 30.3477 41.2643C30.1602 41.4517 30.0549 41.706 30.0549 41.9711C30.0549 42.2363 30.1602 42.4905 30.3477 42.678C30.5352 42.8655 30.7895 42.9708 31.0546 42.9708C31.3197 42.9708 31.574 42.8655 31.7615 42.678C31.949 42.4905 32.0543 42.2363 32.0543 41.9711C32.0543 41.706 31.949 41.4517 31.7615 41.2643C31.574 41.0768 31.3197 40.9715 31.0546 40.9715ZM37.0527 41.9711C36.7876 41.9711 36.5333 42.0765 36.3458 42.2639C36.1584 42.4514 36.053 42.7057 36.053 42.9708C36.053 43.236 36.1584 43.4902 36.3458 43.6777C36.5333 43.8652 36.7876 43.9705 37.0527 43.9705C37.3178 43.9705 37.5721 43.8652 37.7596 43.6777C37.9471 43.4902 38.0524 43.236 38.0524 42.9708C38.0524 42.7057 37.9471 42.4514 37.7596 42.2639C37.5721 42.0765 37.3178 41.9711 37.0527 41.9711ZM42.0511 41.9711C41.786 41.9711 41.5317 42.0765 41.3443 42.2639C41.1568 42.4514 41.0515 42.7057 41.0515 42.9708C41.0515 43.236 41.1568 43.4902 41.3443 43.6777C41.5317 43.8652 41.786 43.9705 42.0511 43.9705C42.3163 43.9705 42.5705 43.8652 42.758 43.6777C42.9455 43.4902 43.0508 43.236 43.0508 42.9708C43.0508 42.7057 42.9455 42.4514 42.758 42.2639C42.5705 42.0765 42.3163 41.9711 42.0511 41.9711ZM27.0559 42.9708C26.7907 42.9708 26.5365 43.0761 26.349 43.2636C26.1615 43.4511 26.0562 43.7054 26.0562 43.9705C26.0562 44.2356 26.1615 44.4899 26.349 44.6774C26.5365 44.8649 26.7907 44.9702 27.0559 44.9702C27.321 44.9702 27.5753 44.8649 27.7628 44.6774C27.9502 44.4899 28.0556 44.2356 28.0556 43.9705C28.0556 43.7054 27.9502 43.4511 27.7628 43.2636C27.5753 43.0761 27.321 42.9708 27.0559 42.9708Z" fill="black"/>
</svg>
