<svg width="148" height="148" viewBox="0 0 148 148" fill="none" xmlns="http://www.w3.org/2000/svg">
<g id="bin 1-148x148">
<g id="SVGRepo_iconCarrier">
<path id="Vector" d="M123.316 41.6616C124.19 41.6616 124.899 41.0305 124.899 40.2516V28.75C124.899 27.9711 124.19 27.34 123.316 27.34H24.9132C24.7054 27.34 24.4996 27.3764 24.3075 27.4473C24.1155 27.5181 23.941 27.622 23.794 27.7529C23.6471 27.8839 23.5305 28.0393 23.451 28.2104C23.3715 28.3815 23.3306 28.5648 23.3306 28.75V40.2516C23.3306 41.0305 24.0389 41.6616 24.9132 41.6616H123.316ZM123.316 47.3016H24.9132C20.5427 47.3016 17 44.1453 17 40.2516V28.75C17 24.8562 20.5427 21.7 24.9132 21.7H123.316C127.686 21.7 131.229 24.8562 131.229 28.75V40.2516C131.229 44.1453 127.686 47.3016 123.316 47.3016Z" fill="#616161" stroke="#616161" stroke-width="0.147915"/>
<path id="Vector_2" d="M119.54 44.9548L110.538 136.723C110.454 137.583 109.5 138.361 108.53 138.361H39.6992C38.7292 138.361 37.7755 137.583 37.6915 136.724L28.6893 44.9548C28.5371 43.4033 27.002 42.2554 25.2605 42.391C23.519 42.5267 22.2306 43.8943 22.3828 45.4458L31.3849 137.214C31.7535 140.987 35.4463 144.001 39.6992 144.001H108.53C112.783 144.001 116.476 140.987 116.845 137.213L125.847 45.4458C125.999 43.8943 124.71 42.5265 122.969 42.391C121.227 42.2556 119.692 43.4033 119.54 44.9548ZM60.0687 24.3546V10.0641C60.0687 9.27567 60.7798 8.64006 61.6514 8.64006H86.5781C87.4496 8.64006 88.1607 9.2758 88.1607 10.0641V24.3546C88.1607 25.912 89.5778 27.1746 91.326 27.1746C93.0742 27.1746 94.4913 25.912 94.4913 24.3546V10.0641C94.4913 6.1651 90.9508 3 86.5781 3H61.6514C57.2787 3 53.7381 6.16523 53.7381 10.0641V24.3546C53.7381 25.912 55.1552 27.1746 56.9034 27.1746C58.6516 27.1746 60.0687 25.912 60.0687 24.3546Z" fill="#616161" stroke="#616161" stroke-width="0.147915"/>
<path id="Vector_3" d="M71.5034 59.569V123.042C71.5034 124.6 72.9205 125.862 74.6687 125.862C76.4169 125.862 77.834 124.6 77.834 123.042V59.569C77.834 58.0115 76.4169 56.749 74.6687 56.749C72.9205 56.749 71.5034 58.0115 71.5034 59.569ZM41.7615 59.8123L47.9338 123.286C48.0847 124.837 49.619 125.986 51.3605 125.852C53.102 125.717 54.3916 124.35 54.2408 122.799L48.0685 59.3256C47.9176 57.7739 46.3833 56.6251 44.6418 56.7595C42.9003 56.8939 41.6107 58.2608 41.7615 59.8123ZM100.161 59.3256L93.9889 122.799C93.8381 124.351 95.1275 125.717 96.8692 125.852C98.6109 125.986 100.145 124.837 100.296 123.286L106.468 59.8123C106.619 58.2606 105.33 56.8939 103.588 56.7595C101.846 56.6251 100.312 57.7739 100.161 59.3256Z" fill="#616161" stroke="#616161" stroke-width="0.147915"/>
</g>
</g>
</svg>
