<svg width="34" height="34" viewBox="0 0 34 34" fill="none" xmlns="http://www.w3.org/2000/svg">
<g id="bin 1-148x148 (ny 27 feb)">
<g id="SVGRepo_iconCarrier">
<path id="Vector" d="M27.7043 9.35987C27.9007 9.35987 28.0598 9.21809 28.0598 9.04309V6.45913C28.0598 6.28413 27.9007 6.14235 27.7043 6.14235H5.5969C5.5502 6.14234 5.50396 6.15053 5.46082 6.16645C5.41768 6.18237 5.37848 6.2057 5.34546 6.23512C5.31244 6.26453 5.28625 6.29946 5.26838 6.33789C5.25052 6.37633 5.24133 6.41753 5.24134 6.45913V9.04309C5.24134 9.21809 5.40047 9.35987 5.5969 9.35987H27.7043ZM27.7043 10.627H5.5969C4.61501 10.627 3.81909 9.91788 3.81909 9.04309V6.45913C3.81909 5.58434 4.61501 4.87524 5.5969 4.87524H27.7043C28.6862 4.87524 29.4821 5.58434 29.4821 6.45913V9.04309C29.4821 9.91788 28.6862 10.627 27.7043 10.627Z" fill="#616161" stroke="#616161" stroke-width="0.0332308"/>
<path id="Vector_2" d="M26.8559 10.0997L24.8335 30.7165C24.8146 30.9098 24.6004 31.0847 24.3824 31.0847H8.91872C8.7008 31.0847 8.48652 30.9098 8.46767 30.7167L6.44521 10.0997C6.41101 9.75115 6.06614 9.49328 5.67488 9.52375C5.28363 9.55422 4.99418 9.86147 5.02838 10.21L7.05081 30.8268C7.13362 31.6745 7.96325 32.3518 8.91872 32.3518H24.3824C25.3379 32.3518 26.1675 31.6745 26.2504 30.8266L28.2728 10.21C28.307 9.86147 28.0175 9.55419 27.6263 9.52375C27.235 9.49331 26.8901 9.75115 26.8559 10.0997ZM13.495 5.47163V2.26111C13.495 2.08398 13.6547 1.94118 13.8505 1.94118H19.4506C19.6464 1.94118 19.8062 2.08401 19.8062 2.26111V5.47163C19.8062 5.82154 20.1246 6.10519 20.5173 6.10519C20.9101 6.10519 21.2284 5.82154 21.2284 5.47163V2.26111C21.2284 1.38515 20.433 0.674072 19.4506 0.674072H13.8505C12.8682 0.674072 12.0727 1.38518 12.0727 2.26111V5.47163C12.0727 5.82154 12.3911 6.10519 12.7839 6.10519C13.1766 6.10519 13.495 5.82154 13.495 5.47163Z" fill="#616161" stroke="#616161" stroke-width="0.0332308"/>
<path id="Vector_3" d="M16.064 13.3829V27.6429C16.064 27.9928 16.3823 28.2765 16.7751 28.2765C17.1678 28.2765 17.4862 27.9928 17.4862 27.6429V13.3829C17.4862 13.033 17.1678 12.7493 16.7751 12.7493C16.3823 12.7493 16.064 13.033 16.064 13.3829ZM9.38209 13.4375L10.7688 27.6976C10.8027 28.0462 11.1474 28.3043 11.5386 28.2741C11.9299 28.2439 12.2196 27.9368 12.1857 27.5882L10.799 13.3282C10.7651 12.9796 10.4204 12.7215 10.0292 12.7517C9.63793 12.7819 9.3482 13.089 9.38209 13.4375ZM22.5023 13.3282L21.1156 27.5882C21.0817 27.9368 21.3714 28.2439 21.7627 28.2741C22.154 28.3043 22.4987 28.0462 22.5325 27.6976L23.9192 13.4375C23.9531 13.0889 23.6634 12.7819 23.2721 12.7517C22.8808 12.7215 22.5362 12.9796 22.5023 13.3282Z" fill="#616161" stroke="#616161" stroke-width="0.0332308"/>
</g>
</g>
</svg>
