<svg width="30" height="30" viewBox="0 0 30 30" fill="none" xmlns="http://www.w3.org/2000/svg">
<path d="M7.81675 15.7531C7.81675 16.4158 7.27944 16.9532 6.61675 16.9532C5.95405 16.9532 5.41675 16.4158 5.41675 15.7531C5.41675 15.0905 5.95405 14.5531 6.61675 14.5531C7.27944 14.5531 7.81675 15.0905 7.81675 15.7531ZM13.1713 15.7531C13.1713 16.4158 12.634 16.9532 11.9713 16.9532C11.3086 16.9532 10.7713 16.4158 10.7713 15.7531C10.7713 15.0905 11.3086 14.5531 11.9713 14.5531C12.634 14.5531 13.1713 15.0905 13.1713 15.7531ZM18.5261 15.7531C18.5261 16.4158 17.9888 16.9532 17.3261 16.9532C16.6634 16.9532 16.1261 16.4158 16.1261 15.7531C16.1261 15.0905 16.6634 14.5531 17.3261 14.5531C17.9888 14.5531 18.5261 15.0905 18.5261 15.7531ZM23.8807 15.7531C23.8807 16.4158 23.3434 16.9532 22.6807 16.9532C22.018 16.9532 21.4807 16.4158 21.4807 15.7531C21.4807 15.0905 22.018 14.5531 22.6807 14.5531C23.3434 14.5531 23.8807 15.0905 23.8807 15.7531ZM7.81675 19.9027C7.81675 20.5654 7.27944 21.1027 6.61675 21.1027C5.95405 21.1027 5.41675 20.5654 5.41675 19.9027C5.41675 19.24 5.95405 18.7027 6.61675 18.7027C7.27944 18.7027 7.81675 19.24 7.81675 19.9027ZM13.1713 19.9027C13.1713 20.5654 12.634 21.1027 11.9713 21.1027C11.3086 21.1027 10.7713 20.5654 10.7713 19.9027C10.7713 19.24 11.3086 18.7027 11.9713 18.7027C12.634 18.7027 13.1713 19.24 13.1713 19.9027ZM18.5261 19.9027C18.5261 20.5654 17.9888 21.1027 17.3261 21.1027C16.6634 21.1027 16.1261 20.5654 16.1261 19.9027C16.1261 19.24 16.6634 18.7027 17.3261 18.7027C17.9888 18.7027 18.5261 19.24 18.5261 19.9027ZM23.8807 19.9027C23.8807 20.5654 23.3434 21.1027 22.6807 21.1027C22.018 21.1027 21.4807 20.5654 21.4807 19.9027C21.4807 19.24 22.018 18.7027 22.6807 18.7027C23.3434 18.7027 23.8807 19.24 23.8807 19.9027ZM7.81675 24.0524C7.81675 24.7151 7.27944 25.2524 6.61675 25.2524C5.95405 25.2524 5.41675 24.7151 5.41675 24.0524C5.41675 23.3897 5.95405 22.8524 6.61675 22.8524C7.27944 22.8524 7.81675 23.3897 7.81675 24.0524ZM13.1713 24.0524C13.1713 24.7151 12.634 25.2524 11.9713 25.2524C11.3086 25.2524 10.7713 24.7151 10.7713 24.0524C10.7713 23.3897 11.3086 22.8524 11.9713 22.8524C12.634 22.8524 13.1713 23.3897 13.1713 24.0524ZM18.5261 24.0524C18.5261 24.7151 17.9888 25.2524 17.3261 25.2524C16.6634 25.2524 16.1261 24.7151 16.1261 24.0524C16.1261 23.3897 16.6634 22.8524 17.3261 22.8524C17.9888 22.8524 18.5261 23.3897 18.5261 24.0524ZM23.8807 24.0524C23.8807 24.7151 23.3434 25.2524 22.6807 25.2524C22.018 25.2524 21.4807 24.7151 21.4807 24.0524C21.4807 23.3897 22.018 22.8524 22.6807 22.8524C23.3434 22.8524 23.8807 23.3897 23.8807 24.0524ZM6.68486 2.39993V6.89993C6.68486 7.2313 6.95349 7.49993 7.28486 7.49993C7.61624 7.49993 7.88486 7.2313 7.88486 6.89993V2.39993C7.88486 2.06855 7.61624 1.79993 7.28486 1.79993C6.95349 1.79993 6.68486 2.06855 6.68486 2.39993ZM22.1562 2.39993V6.89993C22.1562 7.2313 22.4249 7.49993 22.7562 7.49993C23.0876 7.49993 23.3562 7.2313 23.3562 6.89993V2.39993C23.3562 2.06855 23.0876 1.79993 22.7562 1.79993C22.4249 1.79993 22.1562 2.06855 22.1562 2.39993Z" fill="black"/>
<path d="M26.0999 4.02881C27.0939 4.02881 27.8999 4.83474 27.8999 5.82881V26.4355C27.8999 27.4296 27.0939 28.2355 26.0999 28.2355H3.89985C2.90578 28.2355 2.09985 27.4296 2.09985 26.4355V5.82881C2.09985 4.83474 2.90578 4.02881 3.89985 4.02881H26.0999ZM3.89985 5.22881C3.56854 5.22881 3.29985 5.49749 3.29985 5.82881V26.4355C3.29985 26.7668 3.56854 27.0355 3.89985 27.0355H26.0999C26.4312 27.0355 26.6999 26.7668 26.6999 26.4355V5.82881C26.6999 5.49749 26.4312 5.22881 26.0999 5.22881H3.89985Z" fill="black"/>
<path d="M16.8466 9.91077C16.8466 8.91672 16.0407 8.11077 15.0466 8.11077C14.0526 8.11077 13.2466 8.91672 13.2466 9.91077C13.2466 10.9048 14.0526 11.7108 15.0466 11.7108C16.0407 11.7108 16.8466 10.9048 16.8466 9.91077ZM18.0466 9.91077C18.0466 11.5675 16.7034 12.9108 15.0466 12.9108C13.3899 12.9108 12.0466 11.5675 12.0466 9.91077C12.0466 8.254 13.3899 6.91077 15.0466 6.91077C16.7034 6.91077 18.0466 8.254 18.0466 9.91077Z" fill="black"/>
</svg>
