<svg width="30" height="30" viewBox="0 0 30 30" fill="none" xmlns="http://www.w3.org/2000/svg">
<path d="M7.81675 15.7533C7.81675 16.416 7.27944 16.9533 6.61675 16.9533C5.95405 16.9533 5.41675 16.416 5.41675 15.7533C5.41675 15.0906 5.95405 14.5533 6.61675 14.5533C7.27944 14.5533 7.81675 15.0906 7.81675 15.7533ZM13.1713 15.7533C13.1713 16.416 12.634 16.9533 11.9713 16.9533C11.3086 16.9533 10.7713 16.416 10.7713 15.7533C10.7713 15.0906 11.3086 14.5533 11.9713 14.5533C12.634 14.5533 13.1713 15.0906 13.1713 15.7533ZM18.5261 15.7533C18.5261 16.416 17.9888 16.9533 17.3261 16.9533C16.6634 16.9533 16.1261 16.416 16.1261 15.7533C16.1261 15.0906 16.6634 14.5533 17.3261 14.5533C17.9888 14.5533 18.5261 15.0906 18.5261 15.7533ZM23.8807 15.7533C23.8807 16.416 23.3434 16.9533 22.6807 16.9533C22.018 16.9533 21.4807 16.416 21.4807 15.7533C21.4807 15.0906 22.018 14.5533 22.6807 14.5533C23.3434 14.5533 23.8807 15.0906 23.8807 15.7533ZM7.81675 19.9029C7.81675 20.5655 7.27944 21.1029 6.61675 21.1029C5.95405 21.1029 5.41675 20.5655 5.41675 19.9029C5.41675 19.2402 5.95405 18.7029 6.61675 18.7029C7.27944 18.7029 7.81675 19.2402 7.81675 19.9029ZM13.1713 19.9029C13.1713 20.5655 12.634 21.1029 11.9713 21.1029C11.3086 21.1029 10.7713 20.5655 10.7713 19.9029C10.7713 19.2402 11.3086 18.7029 11.9713 18.7029C12.634 18.7029 13.1713 19.2402 13.1713 19.9029ZM18.5261 19.9029C18.5261 20.5655 17.9888 21.1029 17.3261 21.1029C16.6634 21.1029 16.1261 20.5655 16.1261 19.9029C16.1261 19.2402 16.6634 18.7029 17.3261 18.7029C17.9888 18.7029 18.5261 19.2402 18.5261 19.9029ZM23.8807 19.9029C23.8807 20.5655 23.3434 21.1029 22.6807 21.1029C22.018 21.1029 21.4807 20.5655 21.4807 19.9029C21.4807 19.2402 22.018 18.7029 22.6807 18.7029C23.3434 18.7029 23.8807 19.2402 23.8807 19.9029ZM7.81675 24.0525C7.81675 24.7152 7.27944 25.2525 6.61675 25.2525C5.95405 25.2525 5.41675 24.7152 5.41675 24.0525C5.41675 23.3898 5.95405 22.8525 6.61675 22.8525C7.27944 22.8525 7.81675 23.3898 7.81675 24.0525ZM13.1713 24.0525C13.1713 24.7152 12.634 25.2525 11.9713 25.2525C11.3086 25.2525 10.7713 24.7152 10.7713 24.0525C10.7713 23.3898 11.3086 22.8525 11.9713 22.8525C12.634 22.8525 13.1713 23.3898 13.1713 24.0525ZM18.5261 24.0525C18.5261 24.7152 17.9888 25.2525 17.3261 25.2525C16.6634 25.2525 16.1261 24.7152 16.1261 24.0525C16.1261 23.3898 16.6634 22.8525 17.3261 22.8525C17.9888 22.8525 18.5261 23.3898 18.5261 24.0525ZM23.8807 24.0525C23.8807 24.7152 23.3434 25.2525 22.6807 25.2525C22.018 25.2525 21.4807 24.7152 21.4807 24.0525C21.4807 23.3898 22.018 22.8525 22.6807 22.8525C23.3434 22.8525 23.8807 23.3898 23.8807 24.0525ZM6.68486 2.40005V6.90005C6.68486 7.23143 6.95349 7.50005 7.28486 7.50005C7.61624 7.50005 7.88486 7.23143 7.88486 6.90005V2.40005C7.88486 2.06867 7.61624 1.80005 7.28486 1.80005C6.95349 1.80005 6.68486 2.06867 6.68486 2.40005ZM22.1562 2.40005V6.90005C22.1562 7.23143 22.4249 7.50005 22.7562 7.50005C23.0876 7.50005 23.3562 7.23143 23.3562 6.90005V2.40005C23.3562 2.06867 23.0876 1.80005 22.7562 1.80005C22.4249 1.80005 22.1562 2.06867 22.1562 2.40005Z" fill="black"/>
<path d="M26.0999 4.02881C27.0939 4.02881 27.8999 4.83474 27.8999 5.82881V26.4355C27.8999 27.4296 27.0939 28.2355 26.0999 28.2355H3.89985C2.90578 28.2355 2.09985 27.4296 2.09985 26.4355V5.82881C2.09985 4.83474 2.90578 4.02881 3.89985 4.02881H26.0999ZM3.89985 5.22881C3.56854 5.22881 3.29985 5.49749 3.29985 5.82881V26.4355C3.29985 26.7668 3.56854 27.0355 3.89985 27.0355H26.0999C26.4312 27.0355 26.6999 26.7668 26.6999 26.4355V5.82881C26.6999 5.49749 26.4312 5.22881 26.0999 5.22881H3.89985Z" fill="black"/>
<path d="M16.8466 9.91089C16.8466 8.91685 16.0407 8.11089 15.0466 8.11089C14.0526 8.11089 13.2466 8.91685 13.2466 9.91089C13.2466 10.9049 14.0526 11.7109 15.0466 11.7109C16.0407 11.7109 16.8466 10.9049 16.8466 9.91089ZM18.0466 9.91089C18.0466 11.5677 16.7034 12.9109 15.0466 12.9109C13.3899 12.9109 12.0466 11.5677 12.0466 9.91089C12.0466 8.25412 13.3899 6.91089 15.0466 6.91089C16.7034 6.91089 18.0466 8.25412 18.0466 9.91089Z" fill="black"/>
</svg>
