<svg width="20" height="20" viewBox="0 0 20 20" fill="none" xmlns="http://www.w3.org/2000/svg">
<path d="M16.6643 5.62989C16.7824 5.62989 16.8781 5.54461 16.8781 5.43935V3.88509C16.8781 3.77982 16.7824 3.69454 16.6643 3.69454H3.3666C3.33851 3.69454 3.3107 3.69946 3.28475 3.70904C3.2588 3.71861 3.23522 3.73265 3.21536 3.75034C3.1955 3.76804 3.17974 3.78904 3.169 3.81216C3.15825 3.83528 3.15272 3.86006 3.15273 3.88509V5.43935C3.15273 5.54461 3.24845 5.62989 3.3666 5.62989H16.6643ZM16.6643 6.39206H3.3666C2.77599 6.39206 2.29724 5.96553 2.29724 5.43935V3.88509C2.29724 3.3589 2.77599 2.93237 3.3666 2.93237H16.6643C17.2549 2.93237 17.7336 3.3589 17.7336 3.88509V5.43935C17.7336 5.96553 17.2549 6.39206 16.6643 6.39206Z" fill="#616161" stroke="#616161" stroke-width="0.0332308"/>
<path d="M16.1539 6.07497L14.9374 18.476C14.9261 18.5923 14.7972 18.6975 14.6661 18.6975H5.36465C5.23357 18.6975 5.10469 18.5923 5.09335 18.4762L3.87683 6.07497C3.85625 5.86529 3.64882 5.71018 3.41347 5.72851C3.17813 5.74684 3.00403 5.93165 3.0246 6.14132L4.2411 18.5424C4.29091 19.0523 4.78994 19.4596 5.36465 19.4596H14.6661C15.2409 19.4596 15.7399 19.0523 15.7897 18.5423L17.0062 6.14132C17.0268 5.93165 16.8527 5.74682 16.6173 5.72851C16.382 5.7102 16.1745 5.86529 16.1539 6.07497ZM8.11729 3.29115V1.36001C8.11729 1.25346 8.21338 1.16757 8.33116 1.16757H11.6996C11.8174 1.16757 11.9135 1.25348 11.9135 1.36001V3.29115C11.9135 3.50162 12.105 3.67223 12.3412 3.67223C12.5775 3.67223 12.769 3.50162 12.769 3.29115V1.36001C12.769 0.833111 12.2905 0.405396 11.6996 0.405396H8.33116C7.74026 0.405396 7.2618 0.83313 7.2618 1.36001V3.29115C7.2618 3.50162 7.45331 3.67223 7.68955 3.67223C7.92579 3.67223 8.11729 3.50162 8.11729 3.29115Z" fill="#616161" stroke="#616161" stroke-width="0.0332308"/>
<path d="M9.66252 8.04982V16.6273C9.66252 16.8378 9.85402 17.0084 10.0903 17.0084C10.3265 17.0084 10.518 16.8378 10.518 16.6273V8.04982C10.518 7.83935 10.3265 7.66873 10.0903 7.66873C9.85402 7.66873 9.66252 7.83935 9.66252 8.04982ZM5.64334 8.0827L6.47744 16.6602C6.49783 16.8699 6.70516 17.0251 6.9405 17.0069C7.17585 16.9888 7.35012 16.8041 7.32973 16.5944L6.49563 8.01692C6.47525 7.80723 6.26792 7.65198 6.03257 7.67015C5.79723 7.68831 5.62296 7.87303 5.64334 8.0827ZM13.5352 8.01692L12.7011 16.5944C12.6807 16.8041 12.855 16.9888 13.0903 17.0069C13.3257 17.0251 13.533 16.8699 13.5534 16.6602L14.3875 8.0827C14.4079 7.87301 14.2336 7.68831 13.9983 7.67015C13.7629 7.65198 13.5556 7.80723 13.5352 8.01692Z" fill="#616161" stroke="#616161" stroke-width="0.0332308"/>
</svg>
