<svg width="61" height="61" viewBox="0 0 61 61" fill="none" xmlns="http://www.w3.org/2000/svg">
<g clip-path="url(#clip0_368_2477)">
<path d="M58.7378 9.81167L51.1794 2.19591C50.6411 1.65567 50.0011 1.22756 49.2962 0.936356C48.5914 0.645153 47.8358 0.496653 47.0732 0.499431C46.3108 0.496547 45.5554 0.644919 44.8508 0.935956C44.1461 1.22699 43.5062 1.65491 42.968 2.19495L5.86773 39.2865C5.68473 39.4703 5.55366 39.6992 5.48783 39.9501L0.615016 58.6747C0.55889 58.8902 0.55293 59.1157 0.597551 59.334C0.642172 59.5522 0.736196 59.7572 0.872427 59.9334C1.00866 60.1096 1.18345 60.2523 1.38339 60.3504C1.58334 60.4485 1.80312 60.4995 2.02584 60.4994C2.15315 60.4998 2.27994 60.4831 2.40284 60.4499L21.0137 55.4634C21.2613 55.3975 21.487 55.267 21.6677 55.0854L58.7339 18.0201C59.8194 16.9303 60.4293 15.4551 60.4302 13.9169C60.4311 12.3787 59.822 10.9027 58.7378 9.81167ZM38.0738 11.204L42.8621 15.9923L13.7458 45.1086L8.95464 40.3174L38.0738 11.204ZM7.50106 56.0648L4.96215 53.5259L7.66332 43.1478L17.817 53.3005L7.50106 56.0648ZM20.6319 51.9946L15.8067 47.1694L44.923 18.0531L49.7482 22.8783L20.6319 51.9946ZM56.6682 15.9583L51.81 20.8165L40.1367 9.1422L45.025 4.25483C45.2927 3.98682 45.6109 3.77447 45.9611 3.63005C46.3113 3.48563 46.6866 3.412 47.0654 3.41338C47.4441 3.41151 47.8193 3.48465 48.1695 3.62857C48.5198 3.77249 48.838 3.98435 49.1059 4.25192L56.6653 11.8677C57.2046 12.4116 57.5072 13.1465 57.5072 13.9125C57.5072 14.6784 57.2046 15.4134 56.6653 15.9573L56.6682 15.9583Z" fill="#616161"/>
</g>
<defs>
<clipPath id="clip0_368_2477">
<rect width="60" height="60" fill="white" transform="translate(0.49939 0.49939)"/>
</clipPath>
</defs>
</svg>
