<svg width="60" height="61" viewBox="0 0 60 61" fill="none" xmlns="http://www.w3.org/2000/svg">
<g clip-path="url(#clip0_368_2491)">
<path d="M58.2384 9.81167L50.68 2.19591C50.1417 1.65567 49.5017 1.22756 48.7968 0.936356C48.092 0.645153 47.3364 0.496653 46.5738 0.499431C45.8114 0.496547 45.056 0.644919 44.3514 0.935956C43.6467 1.22699 43.0068 1.65491 42.4686 2.19495L5.36834 39.2865C5.18534 39.4703 5.05427 39.6992 4.98844 39.9501L0.115627 58.6747C0.0595006 58.8902 0.0535408 59.1157 0.0981616 59.334C0.142782 59.5522 0.236806 59.7572 0.373038 59.9334C0.509269 60.1096 0.684057 60.2523 0.884005 60.3504C1.08395 60.4485 1.30373 60.4995 1.52645 60.4994C1.65376 60.4998 1.78055 60.4831 1.90345 60.4499L20.5143 55.4634C20.7619 55.3975 20.9876 55.267 21.1683 55.0854L58.2345 18.0201C59.32 16.9303 59.9299 15.4551 59.9308 13.9169C59.9317 12.3787 59.3226 10.9027 58.2384 9.81167ZM37.5745 11.204L42.3627 15.9923L13.2464 45.1086L8.45526 40.3174L37.5745 11.204ZM7.00167 56.0648L4.46276 53.5259L7.16393 43.1478L17.3176 53.3005L7.00167 56.0648ZM20.1325 51.9946L15.3073 47.1694L44.4236 18.0531L49.2488 22.8783L20.1325 51.9946ZM56.1688 15.9583L51.3106 20.8165L39.6373 9.1422L44.5256 4.25483C44.7933 3.98682 45.1115 3.77447 45.4617 3.63005C45.8119 3.48563 46.1872 3.412 46.566 3.41338C46.9447 3.41151 47.3199 3.48465 47.6701 3.62857C48.0204 3.77249 48.3386 3.98435 48.6065 4.25192L56.1659 11.8677C56.7052 12.4116 57.0078 13.1465 57.0078 13.9125C57.0078 14.6784 56.7052 15.4134 56.1659 15.9573L56.1688 15.9583Z" fill="#FFBC2C"/>
</g>
<defs>
<clipPath id="clip0_368_2491">
<rect width="60" height="60" fill="white" transform="translate(0 0.49939)"/>
</clipPath>
</defs>
</svg>
