<svg width="30" height="30" viewBox="0 0 30 30" fill="none" xmlns="http://www.w3.org/2000/svg">
<path d="M20.6788 4.6875C16.8749 4.6875 14.9999 8.4375 14.9999 8.4375C14.9999 8.4375 13.1249 4.6875 9.32096 4.6875C6.22955 4.6875 3.78151 7.27383 3.74987 10.36C3.68541 16.766 8.8317 21.3217 14.4725 25.1502C14.628 25.256 14.8118 25.3126 14.9999 25.3126C15.188 25.3126 15.3717 25.256 15.5272 25.1502C21.1674 21.3217 26.3137 16.766 26.2499 10.36C26.2182 7.27383 23.7702 4.6875 20.6788 4.6875Z" stroke="#FFBC2C" stroke-width="1.46" stroke-linecap="round" stroke-linejoin="round"/>
<path d="M2.8125 15H9.375L12.1875 9.375L15 18.75L17.8125 13.125L19.6875 16.875H27.1875" stroke="#FFBC2C" stroke-width="1.46" stroke-linecap="round" stroke-linejoin="round"/>
</svg>
