<svg width="20" height="20" viewBox="0 0 20 20" fill="none" xmlns="http://www.w3.org/2000/svg">
<g clip-path="url(#clip0_368_2467)">
<path d="M16.6002 4.66269L14.628 3.72603L14.7303 3.51076C15.1777 2.56861 14.7753 1.43802 13.8331 0.990507L12.1345 0.183777C11.6781 -0.0330454 11.1647 -0.0589599 10.6886 0.1104C10.2126 0.27983 9.83103 0.624535 9.61427 1.08093L9.51202 1.2962L7.53985 0.359475C6.50799 -0.130506 5.26958 0.310322 4.77939 1.34218L4.27448 2.4051C4.19434 2.57383 4.18456 2.76748 4.24716 2.94339C4.30983 3.11937 4.43976 3.26324 4.60848 3.34337L9.8349 5.82567H2.92108C2.72412 5.82567 2.53624 5.90813 2.40293 6.05306C2.26956 6.19805 2.20301 6.39213 2.21935 6.58839L3.14488 17.694C3.25262 18.9871 4.35342 19.9999 5.65098 19.9999H10.8296C12.1271 19.9999 13.2279 18.9871 13.3357 17.694L14.1538 7.87693L16.14 8.82027C16.2375 8.86661 16.3404 8.88851 16.4416 8.88851C16.705 8.88851 16.9577 8.74007 17.0782 8.48627L17.5831 7.42343C18.073 6.39128 17.6321 5.15288 16.6002 4.66269ZM10.8865 1.68513C10.9418 1.56858 11.0393 1.48056 11.1608 1.43718C11.2826 1.39394 11.4136 1.40049 11.5302 1.45598L13.2288 2.26264C13.4695 2.377 13.5723 2.66586 13.458 2.90656L13.3557 3.12183L10.7842 1.90047L10.8865 1.68513ZM11.932 17.577C11.8846 18.1458 11.4003 18.5914 10.8296 18.5914H5.65091C5.08008 18.5914 4.59581 18.1458 4.54841 17.577L3.68648 7.234H12.794L11.932 17.577ZM16.3106 6.81901L16.108 7.24576L5.84886 2.37313L6.0516 1.94631C6.20856 1.61569 6.60531 1.47464 6.93565 1.63161L15.9959 5.93482C16.3265 6.09186 16.4677 6.48853 16.3106 6.81901Z" fill="#616161"/>
</g>
<defs>
<clipPath id="clip0_368_2467">
<rect width="20" height="20" fill="white"/>
</clipPath>
</defs>
</svg>
