<svg width="30" height="30" viewBox="0 0 30 30" fill="none" xmlns="http://www.w3.org/2000/svg">
<g clip-path="url(#clip0_369_5103)">
<path d="M17.5 10H5.83333C5.61232 10 5.40036 9.9122 5.24408 9.75592C5.0878 9.59964 5 9.38768 5 9.16667V5.83333C5 5.61232 5.0878 5.40036 5.24408 5.24408C5.40036 5.0878 5.61232 5 5.83333 5H17.5C17.721 5 17.933 5.0878 18.0893 5.24408C18.2455 5.40036 18.3333 5.61232 18.3333 5.83333V9.16667C18.3333 9.38768 18.2455 9.59964 18.0893 9.75592C17.933 9.9122 17.721 10 17.5 10ZM6.66667 8.33333H16.6667V6.61667H6.66667V8.33333Z" fill="black"/>
<path d="M17.5 11.7334H5.83333C5.61232 11.7334 5.40036 11.8212 5.24408 11.9775C5.0878 12.1338 5 12.3457 5 12.5667V15.8334C5 16.0544 5.0878 16.2664 5.24408 16.4227C5.40036 16.5789 5.61232 16.6667 5.83333 16.6667H15.3L18.3333 13.5834V12.5667C18.3333 12.3457 18.2455 12.1338 18.0893 11.9775C17.933 11.8212 17.721 11.7334 17.5 11.7334ZM16.6667 15.0001H6.66667V13.3334H16.6667V15.0001Z" fill="black"/>
<path d="M9.2165 26.2583V26.2083L9.48317 25.05H3.33317V3.33329H19.9998V11.875L21.6665 10.3V2.49996C21.6665 2.27895 21.5787 2.06698 21.4224 1.9107C21.2661 1.75442 21.0542 1.66663 20.8332 1.66663H2.49984C2.27882 1.66663 2.06686 1.75442 1.91058 1.9107C1.7543 2.06698 1.6665 2.27895 1.6665 2.49996V25.8333C1.6665 26.0543 1.7543 26.2663 1.91058 26.4225C2.06686 26.5788 2.27882 26.6666 2.49984 26.6666H9.1665C9.17337 26.5295 9.19008 26.393 9.2165 26.2583Z" fill="black"/>
<path d="M18.3334 15.975L17.6833 16.6333C17.8446 16.6001 17.9924 16.5198 18.1081 16.4026C18.2238 16.2855 18.3022 16.1366 18.3334 15.975Z" fill="black"/>
<path d="M5 22.45C5 22.6711 5.0878 22.883 5.24408 23.0393C5.40036 23.1956 5.61232 23.2834 5.83333 23.2834H9.86667L10.1167 22.2L10.225 21.7417V21.7H6.66667V20H11.95L13.6167 18.3334H5.83333C5.61232 18.3334 5.40036 18.4212 5.24408 18.5775C5.0878 18.7337 5 18.9457 5 19.1667V22.45Z" fill="black"/>
<path d="M27.9082 13.8917L25.0999 11.0834C24.9752 10.9584 24.8272 10.8592 24.6641 10.7916C24.5011 10.7239 24.3264 10.6891 24.1499 10.6891C23.9734 10.6891 23.7986 10.7239 23.6356 10.7916C23.4726 10.8592 23.3245 10.9584 23.1999 11.0834L11.7749 22.575L10.8332 26.5834C10.7979 26.7563 10.7971 26.9345 10.8309 27.1077C10.8646 27.2809 10.9321 27.4458 11.0297 27.5929C11.1272 27.74 11.2528 27.8664 11.3993 27.9648C11.5457 28.0633 11.7102 28.1319 11.8832 28.1667C11.9691 28.1753 12.0556 28.1753 12.1415 28.1667C12.2436 28.1833 12.3478 28.1833 12.4499 28.1667L16.4915 27.275L27.9082 15.8334C28.0329 15.7094 28.1319 15.5621 28.1994 15.3997C28.267 15.2374 28.3018 15.0633 28.3018 14.8875C28.3018 14.7117 28.267 14.5376 28.1994 14.3753C28.1319 14.213 28.0329 14.0656 27.9082 13.9417V13.8917ZM15.6415 25.7584L12.5915 26.4334L13.3332 23.4084L21.8999 14.75L24.2499 17.1L15.6415 25.7584ZM25.1915 16.1584L22.8415 13.8084L24.1665 12.5L26.5332 14.8667L25.1915 16.1584Z" fill="black"/>
</g>
<defs>
<clipPath id="clip0_369_5103">
<rect width="30" height="30" fill="white"/>
</clipPath>
</defs>
</svg>
